<svg xmlns="http://www.w3.org/2000/svg" xmlns:xlink="http://www.w3.org/1999/xlink" width="500" zoomAndPan="magnify" viewBox="0 0 375 374.999991" height="500" preserveAspectRatio="xMidYMid meet" version="1.0"><defs><g/><clipPath id="9c1e621441"><path d="M 87.5625 163.992188 L 134.8125 163.992188 L 134.8125 211.242188 L 87.5625 211.242188 Z M 87.5625 163.992188 " clip-rule="nonzero"/></clipPath></defs><path stroke-linecap="butt" transform="matrix(3.743619, 0, 0, 3.85852, 90.410492, 158.799556)" fill="none" stroke-linejoin="miter" d="M -0.0000897295 0.000317551 L 11.019705 0.000317551 " stroke="#fca311" stroke-width="1" stroke-opacity="1" stroke-miterlimit="4"/><path stroke-linecap="butt" transform="matrix(3.757466, 0, 0, 3.75, 120.120781, 216.254664)" fill="none" stroke-linejoin="miter" d="M 0.0000831246 -0.00020212 L 34.533416 -0.00020212 " stroke="#fca311" stroke-width="1" stroke-opacity="1" stroke-miterlimit="4"/><g clip-path="url(#9c1e621441)"><path fill="#14213d" d="M 111.1875 163.992188 C 98.136719 163.992188 87.5625 174.566406 87.5625 187.617188 C 87.5625 200.671875 98.136719 211.242188 111.1875 211.242188 C 124.242188 211.242188 134.8125 200.671875 134.8125 187.617188 C 134.8125 174.566406 124.242188 163.992188 111.1875 163.992188 Z M 111.1875 206.515625 C 100.746094 206.515625 92.289062 198.058594 92.289062 187.617188 C 92.289062 177.175781 100.746094 168.71875 111.1875 168.71875 C 121.632812 168.71875 130.089844 177.175781 130.089844 187.617188 C 130.089844 198.058594 121.632812 206.515625 111.1875 206.515625 Z M 111.1875 206.515625 " fill-opacity="1" fill-rule="nonzero"/></g><g fill="#14213d" fill-opacity="1"><g transform="translate(103.968571, 198.083411)"><g><path d="M 16.1875 -19.515625 C 16.050781 -18.535156 15.992188 -17.644531 16.015625 -16.84375 C 16.015625 -15.914062 16.140625 -14.828125 16.390625 -13.578125 C 16.648438 -12.328125 16.878906 -11.109375 17.078125 -9.921875 C 17.273438 -8.734375 17.332031 -7.640625 17.25 -6.640625 C 17.113281 -4.710938 16.457031 -3.085938 15.28125 -1.765625 C 14.726562 -1.140625 14.109375 -0.628906 13.421875 -0.234375 C 13.265625 -0.140625 13.097656 -0.0625 12.921875 0 C 12.742188 0.0625 12.519531 0.132812 12.25 0.21875 C 11.988281 0.3125 11.78125 0.328125 11.625 0.265625 C 11.46875 0.203125 11.414062 0.0351562 11.46875 -0.234375 C 11.507812 -0.585938 11.566406 -0.992188 11.640625 -1.453125 C 11.722656 -1.921875 11.800781 -2.390625 11.875 -2.859375 C 11.957031 -3.328125 12.019531 -3.738281 12.0625 -4.09375 C 12.0625 -4.113281 12.0625 -4.140625 12.0625 -4.171875 C 12.0625 -4.203125 12.0625 -4.21875 12.0625 -4.21875 C 10.644531 -3.425781 8.972656 -3.425781 7.046875 -4.21875 C 6.265625 -3.09375 5.351562 -2.160156 4.3125 -1.421875 C 3.34375 -0.710938 2.328125 -0.21875 1.265625 0.0625 C -0.0859375 0.4375 -0.753906 0.394531 -0.734375 -0.0625 C -0.734375 -0.132812 -0.703125 -0.222656 -0.640625 -0.328125 C -0.347656 -0.929688 0.128906 -1.796875 0.796875 -2.921875 C 1.460938 -4.054688 1.9375 -4.910156 2.21875 -5.484375 C 2.351562 -5.722656 2.488281 -6 2.625 -6.3125 C 2.25 -6.382812 1.828125 -6.421875 1.359375 -6.421875 C 0.609375 -6.421875 0.1875 -6.429688 0.09375 -6.453125 C -0.144531 -6.535156 -0.1875 -6.703125 -0.03125 -6.953125 C 0.875 -8.234375 2.179688 -8.929688 3.890625 -9.046875 C 3.890625 -9.046875 3.894531 -9.0625 3.90625 -9.09375 C 3.914062 -9.125 3.929688 -9.148438 3.953125 -9.171875 C 4.015625 -9.328125 4.175781 -9.710938 4.4375 -10.328125 C 4.707031 -10.953125 4.882812 -11.363281 4.96875 -11.5625 C 5.0625 -11.757812 5.234375 -12.132812 5.484375 -12.6875 C 5.742188 -13.25 5.9375 -13.644531 6.0625 -13.875 C 6.1875 -14.101562 6.378906 -14.460938 6.640625 -14.953125 C 6.910156 -15.441406 7.140625 -15.816406 7.328125 -16.078125 C 7.515625 -16.347656 7.75 -16.679688 8.03125 -17.078125 C 8.320312 -17.484375 8.597656 -17.816406 8.859375 -18.078125 C 9.128906 -18.347656 9.429688 -18.632812 9.765625 -18.9375 C 10.097656 -19.25 10.441406 -19.539062 10.796875 -19.8125 C 11.597656 -20.363281 12.453125 -20.835938 13.359375 -21.234375 C 13.828125 -21.429688 14.289062 -21.609375 14.75 -21.765625 C 14.800781 -21.765625 14.898438 -21.789062 15.046875 -21.84375 C 15.203125 -21.90625 15.328125 -21.953125 15.421875 -21.984375 C 15.523438 -22.015625 15.648438 -22.039062 15.796875 -22.0625 C 15.941406 -22.082031 16.0625 -22.070312 16.15625 -22.03125 C 16.257812 -21.988281 16.347656 -21.921875 16.421875 -21.828125 C 16.460938 -21.765625 16.488281 -21.675781 16.5 -21.5625 C 16.507812 -21.457031 16.507812 -21.359375 16.5 -21.265625 C 16.488281 -21.179688 16.460938 -21.066406 16.421875 -20.921875 C 16.390625 -20.773438 16.375 -20.691406 16.375 -20.671875 C 16.289062 -20.179688 16.226562 -19.796875 16.1875 -19.515625 Z M 8.96875 -7.90625 C 9.613281 -7.707031 10.179688 -7.550781 10.671875 -7.4375 C 11.023438 -7.375 11.519531 -7.285156 12.15625 -7.171875 C 12.15625 -7.734375 12.125 -8.320312 12.0625 -8.9375 C 11.945312 -10.070312 11.890625 -11.320312 11.890625 -12.6875 C 11.890625 -14.0625 12.023438 -15.28125 12.296875 -16.34375 C 12.003906 -15.84375 11.726562 -15.304688 11.46875 -14.734375 C 11.21875 -14.171875 10.988281 -13.597656 10.78125 -13.015625 C 10.570312 -12.441406 10.375 -11.890625 10.1875 -11.359375 C 10 -10.828125 9.789062 -10.238281 9.5625 -9.59375 C 9.34375 -8.957031 9.144531 -8.394531 8.96875 -7.90625 Z M 8.96875 -7.90625 "/></g></g></g><g fill="#14213d" fill-opacity="1"><g transform="translate(128.788461, 198.083411)"><g><path d="M 20.265625 -21.609375 C 20.265625 -21.515625 20.238281 -21.414062 20.1875 -21.3125 C 20.132812 -21.21875 20.046875 -21.109375 19.921875 -20.984375 C 19.796875 -20.867188 19.722656 -20.796875 19.703125 -20.765625 C 19.390625 -20.367188 19.132812 -19.992188 18.9375 -19.640625 C 18.519531 -18.910156 18.210938 -18.066406 18.015625 -17.109375 C 17.816406 -16.097656 17.617188 -14.390625 17.421875 -11.984375 C 17.234375 -9.578125 16.960938 -7.734375 16.609375 -6.453125 C 15.972656 -4.210938 14.988281 -2.492188 13.65625 -1.296875 C 12.90625 -0.628906 12.0625 -0.148438 11.125 0.140625 C 10.507812 0.316406 9.96875 0.359375 9.5 0.265625 C 9.144531 0.179688 9.101562 -0.0234375 9.375 -0.359375 C 9.96875 -1.066406 10.3125 -1.65625 10.40625 -2.125 C 10.53125 -2.675781 10.492188 -3.316406 10.296875 -4.046875 C 10.160156 -4.648438 9.96875 -5.296875 9.71875 -5.984375 C 9.46875 -6.671875 9.21875 -7.285156 8.96875 -7.828125 C 8.726562 -8.367188 8.460938 -8.992188 8.171875 -9.703125 C 7.878906 -10.410156 7.632812 -11.03125 7.4375 -11.5625 C 7.257812 -9.414062 7.003906 -7.710938 6.671875 -6.453125 C 6.035156 -4.210938 5.050781 -2.492188 3.71875 -1.296875 C 2.945312 -0.628906 2.101562 -0.148438 1.1875 0.140625 C 0.550781 0.335938 0 0.367188 -0.46875 0.234375 C -0.800781 0.140625 -0.832031 -0.0546875 -0.5625 -0.359375 C 0.675781 -1.847656 1.4375 -3.5 1.71875 -5.3125 C 1.8125 -5.84375 1.882812 -6.390625 1.9375 -6.953125 C 2 -7.523438 2.054688 -8.179688 2.109375 -8.921875 C 2.160156 -9.660156 2.210938 -10.207031 2.265625 -10.5625 C 2.347656 -11.582031 2.457031 -12.484375 2.59375 -13.265625 C 2.726562 -14.054688 2.925781 -14.914062 3.1875 -15.84375 C 3.457031 -16.78125 3.828125 -17.632812 4.296875 -18.40625 C 4.773438 -19.1875 5.347656 -19.863281 6.015625 -20.4375 C 6.628906 -20.988281 7.316406 -21.398438 8.078125 -21.671875 C 9.515625 -22.203125 10.253906 -22.179688 10.296875 -21.609375 C 10.316406 -21.535156 10.3125 -21.453125 10.28125 -21.359375 C 10.25 -21.273438 10.203125 -21.191406 10.140625 -21.109375 C 10.085938 -21.035156 10.035156 -20.953125 9.984375 -20.859375 C 9.929688 -20.773438 9.894531 -20.710938 9.875 -20.671875 C 9.289062 -19.515625 9.3125 -17.984375 9.9375 -16.078125 C 10.113281 -15.503906 10.425781 -14.695312 10.875 -13.65625 C 11.332031 -12.613281 11.617188 -11.960938 11.734375 -11.703125 C 11.929688 -11.210938 12.082031 -10.820312 12.1875 -10.53125 C 12.1875 -10.550781 12.1875 -10.5625 12.1875 -10.5625 C 12.28125 -11.582031 12.394531 -12.484375 12.53125 -13.265625 C 12.664062 -14.054688 12.863281 -14.914062 13.125 -15.84375 C 13.394531 -16.78125 13.765625 -17.632812 14.234375 -18.40625 C 14.710938 -19.1875 15.285156 -19.863281 15.953125 -20.4375 C 16.566406 -20.988281 17.253906 -21.398438 18.015625 -21.671875 C 19.453125 -22.203125 20.203125 -22.179688 20.265625 -21.609375 Z M 20.265625 -21.609375 "/></g></g></g><g fill="#14213d" fill-opacity="1"><g transform="translate(154.339251, 198.083411)"><g><path d="M 8.171875 -21.765625 C 8.347656 -21.835938 8.53125 -21.894531 8.71875 -21.9375 C 8.90625 -21.976562 9.128906 -22.015625 9.390625 -22.046875 C 9.660156 -22.078125 9.867188 -22.039062 10.015625 -21.9375 C 10.160156 -21.84375 10.203125 -21.675781 10.140625 -21.4375 C 10.140625 -21.394531 10.117188 -21.335938 10.078125 -21.265625 C 10.046875 -21.203125 10.003906 -21.140625 9.953125 -21.078125 C 9.898438 -21.023438 9.847656 -20.976562 9.796875 -20.9375 C 9.753906 -20.894531 9.710938 -20.84375 9.671875 -20.78125 C 9.628906 -20.726562 9.59375 -20.691406 9.5625 -20.671875 C 9.300781 -20.296875 9.082031 -19.953125 8.90625 -19.640625 C 8.507812 -18.910156 8.207031 -18.054688 8 -17.078125 C 7.820312 -16.148438 7.679688 -15.007812 7.578125 -13.65625 C 7.484375 -12.300781 7.367188 -11 7.234375 -9.75 C 7.109375 -8.5 6.898438 -7.363281 6.609375 -6.34375 C 5.960938 -4.101562 4.96875 -2.398438 3.625 -1.234375 C 2.894531 -0.585938 2.082031 -0.128906 1.1875 0.140625 C 0.570312 0.335938 0.03125 0.378906 -0.4375 0.265625 C -0.789062 0.179688 -0.832031 -0.0234375 -0.5625 -0.359375 C 0.632812 -1.828125 1.375 -3.488281 1.65625 -5.34375 C 1.695312 -5.75 1.742188 -6.1875 1.796875 -6.65625 C 1.859375 -7.132812 1.898438 -7.5625 1.921875 -7.9375 C 1.941406 -8.320312 1.972656 -8.769531 2.015625 -9.28125 C 2.066406 -9.800781 2.101562 -10.226562 2.125 -10.5625 C 2.1875 -11.363281 2.269531 -12.082031 2.375 -12.71875 C 2.476562 -13.363281 2.625 -14.078125 2.8125 -14.859375 C 3 -15.648438 3.21875 -16.351562 3.46875 -16.96875 C 3.726562 -17.59375 4.066406 -18.222656 4.484375 -18.859375 C 4.898438 -19.492188 5.390625 -20.039062 5.953125 -20.5 C 6.640625 -21.101562 7.378906 -21.523438 8.171875 -21.765625 Z M 8.171875 -21.765625 "/></g></g></g><g fill="#14213d" fill-opacity="1"><g transform="translate(169.790336, 198.083411)"><g><path d="M 18.28125 -21.640625 C 18.363281 -21.640625 18.484375 -21.644531 18.640625 -21.65625 C 18.796875 -21.664062 18.941406 -21.679688 19.078125 -21.703125 C 19.210938 -21.722656 19.351562 -21.734375 19.5 -21.734375 C 19.65625 -21.734375 19.789062 -21.71875 19.90625 -21.6875 C 20.019531 -21.65625 20.101562 -21.59375 20.15625 -21.5 C 20.207031 -21.414062 20.234375 -21.296875 20.234375 -21.140625 C 20.148438 -20.335938 19.640625 -19.59375 18.703125 -18.90625 C 17.242188 -17.78125 15.019531 -17.492188 12.03125 -18.046875 C 11.65625 -18.109375 11.070312 -18.234375 10.28125 -18.421875 C 9.5 -18.617188 8.894531 -18.75 8.46875 -18.8125 C 8.445312 -18.769531 8.425781 -18.722656 8.40625 -18.671875 C 8.3125 -18.429688 8.234375 -18.15625 8.171875 -17.84375 C 8.035156 -17.226562 7.9375 -16.375 7.875 -15.28125 C 7.851562 -15 7.832031 -14.6875 7.8125 -14.34375 C 7.789062 -14 7.765625 -13.640625 7.734375 -13.265625 C 7.710938 -12.890625 7.691406 -12.566406 7.671875 -12.296875 C 7.867188 -12.429688 8.066406 -12.539062 8.265625 -12.625 C 9.128906 -13 10.226562 -13.164062 11.5625 -13.125 C 11.851562 -13.125 12.191406 -13.101562 12.578125 -13.0625 C 12.960938 -13.019531 13.34375 -12.972656 13.71875 -12.921875 C 14.09375 -12.878906 14.425781 -12.859375 14.71875 -12.859375 C 15.070312 -12.859375 15.472656 -12.9375 15.921875 -13.09375 C 16.140625 -13.1875 16.3125 -13.207031 16.4375 -13.15625 C 16.570312 -13.113281 16.65625 -12.972656 16.6875 -12.734375 C 16.769531 -12.023438 16.535156 -11.414062 15.984375 -10.90625 C 15.429688 -10.394531 14.816406 -10.046875 14.140625 -9.859375 C 13.460938 -9.671875 12.789062 -9.5625 12.125 -9.53125 C 11.195312 -9.507812 10.125 -9.664062 8.90625 -10 C 8.195312 -10.175781 7.734375 -10.253906 7.515625 -10.234375 C 7.304688 -8.242188 6.960938 -6.539062 6.484375 -5.125 C 5.816406 -3.238281 4.765625 -1.785156 3.328125 -0.765625 C 2.523438 -0.191406 1.710938 0.148438 0.890625 0.265625 C 0.734375 0.285156 0.566406 0.296875 0.390625 0.296875 C 0.210938 0.296875 0.0078125 0.28125 -0.21875 0.25 C -0.445312 0.21875 -0.59375 0.144531 -0.65625 0.03125 C -0.726562 -0.0820312 -0.722656 -0.25 -0.640625 -0.46875 C -0.410156 -0.863281 -0.195312 -1.273438 0 -1.703125 C 0.195312 -2.140625 0.382812 -2.59375 0.5625 -3.0625 C 0.738281 -3.539062 0.894531 -3.976562 1.03125 -4.375 C 1.164062 -4.78125 1.300781 -5.257812 1.4375 -5.8125 C 1.582031 -6.363281 1.695312 -6.8125 1.78125 -7.15625 C 1.875 -7.5 2 -7.972656 2.15625 -8.578125 C 2.3125 -9.191406 2.421875 -9.65625 2.484375 -9.96875 C 2.515625 -10.082031 2.59375 -10.382812 2.71875 -10.875 C 2.851562 -11.375 2.9375 -11.703125 2.96875 -11.859375 C 3 -12.015625 3.082031 -12.328125 3.21875 -12.796875 C 3.351562 -13.265625 3.453125 -13.597656 3.515625 -13.796875 C 3.585938 -13.992188 3.691406 -14.296875 3.828125 -14.703125 C 3.972656 -15.117188 4.101562 -15.441406 4.21875 -15.671875 C 4.332031 -15.898438 4.472656 -16.1875 4.640625 -16.53125 C 4.804688 -16.875 4.960938 -17.164062 5.109375 -17.40625 C 5.265625 -17.65625 5.441406 -17.914062 5.640625 -18.1875 C 5.847656 -18.46875 6.0625 -18.71875 6.28125 -18.9375 C 6.28125 -18.9375 6.3125 -18.960938 6.375 -19.015625 C 6.09375 -19.015625 5.816406 -19.003906 5.546875 -18.984375 C 5.523438 -18.984375 5.484375 -18.96875 5.421875 -18.9375 C 4.523438 -18.738281 4.101562 -18.785156 4.15625 -19.078125 C 4.15625 -19.140625 4.175781 -19.207031 4.21875 -19.28125 C 5.238281 -21.15625 7.488281 -22.070312 10.96875 -22.03125 C 11.738281 -22.03125 12.9375 -21.957031 14.5625 -21.8125 C 16.195312 -21.675781 17.4375 -21.617188 18.28125 -21.640625 Z M 18.28125 -21.640625 "/></g></g></g><g fill="#14213d" fill-opacity="1"><g transform="translate(194.676679, 198.083411)"><g><path d="M 15.890625 -6.015625 C 16.066406 -5.972656 16.179688 -5.820312 16.234375 -5.5625 C 16.285156 -5.3125 16.285156 -5.019531 16.234375 -4.6875 C 16.179688 -4.351562 16.117188 -4.046875 16.046875 -3.765625 C 15.984375 -3.492188 15.90625 -3.28125 15.8125 -3.125 C 15.039062 -1.3125 13.082031 -0.191406 9.9375 0.234375 C 9.226562 0.316406 8.257812 0.28125 7.03125 0.125 C 5.800781 -0.0195312 4.953125 -0.09375 4.484375 -0.09375 C 3.679688 -0.09375 2.53125 0.00390625 1.03125 0.203125 C 0.8125 0.285156 0.414062 0.300781 -0.15625 0.25 C -0.738281 0.195312 -0.875 -0.00390625 -0.5625 -0.359375 C 0.738281 -1.890625 1.554688 -3.539062 1.890625 -5.3125 C 1.984375 -5.84375 2.0625 -6.382812 2.125 -6.9375 C 2.1875 -7.5 2.25 -8.164062 2.3125 -8.9375 C 2.382812 -9.71875 2.429688 -10.257812 2.453125 -10.5625 C 2.566406 -11.601562 2.695312 -12.53125 2.84375 -13.34375 C 2.988281 -14.15625 3.195312 -15.023438 3.46875 -15.953125 C 3.75 -16.878906 4.132812 -17.726562 4.625 -18.5 C 5.125 -19.28125 5.734375 -19.957031 6.453125 -20.53125 C 7.179688 -21.132812 7.976562 -21.554688 8.84375 -21.796875 C 9.019531 -21.867188 9.195312 -21.921875 9.375 -21.953125 C 9.550781 -21.984375 9.773438 -22.007812 10.046875 -22.03125 C 10.328125 -22.050781 10.539062 -22.007812 10.6875 -21.90625 C 10.832031 -21.8125 10.867188 -21.65625 10.796875 -21.4375 C 10.773438 -21.34375 10.726562 -21.242188 10.65625 -21.140625 C 10.59375 -21.046875 10.503906 -20.945312 10.390625 -20.84375 C 10.285156 -20.75 10.222656 -20.679688 10.203125 -20.640625 C 9.910156 -20.285156 9.664062 -19.953125 9.46875 -19.640625 C 9 -18.910156 8.65625 -18.066406 8.4375 -17.109375 C 8.195312 -16.046875 7.972656 -14.289062 7.765625 -11.84375 C 7.566406 -9.394531 7.269531 -7.53125 6.875 -6.25 C 6.519531 -5.050781 6.046875 -4 5.453125 -3.09375 C 6.421875 -3.425781 7.285156 -3.632812 8.046875 -3.71875 C 8.421875 -3.757812 8.847656 -3.78125 9.328125 -3.78125 C 9.816406 -3.78125 10.269531 -3.769531 10.6875 -3.75 C 11.113281 -3.726562 11.566406 -3.742188 12.046875 -3.796875 C 12.523438 -3.859375 12.953125 -3.941406 13.328125 -4.046875 C 13.742188 -4.203125 14.164062 -4.472656 14.59375 -4.859375 C 14.632812 -4.898438 14.742188 -5.035156 14.921875 -5.265625 C 15.097656 -5.492188 15.269531 -5.679688 15.4375 -5.828125 C 15.601562 -5.972656 15.753906 -6.035156 15.890625 -6.015625 Z M 15.890625 -6.015625 "/></g></g></g><g fill="#14213d" fill-opacity="1"><g transform="translate(219.230789, 198.083411)"><g><path d="M 8.171875 -21.765625 C 8.347656 -21.835938 8.53125 -21.894531 8.71875 -21.9375 C 8.90625 -21.976562 9.128906 -22.015625 9.390625 -22.046875 C 9.660156 -22.078125 9.867188 -22.039062 10.015625 -21.9375 C 10.160156 -21.84375 10.203125 -21.675781 10.140625 -21.4375 C 10.140625 -21.394531 10.117188 -21.335938 10.078125 -21.265625 C 10.046875 -21.203125 10.003906 -21.140625 9.953125 -21.078125 C 9.898438 -21.023438 9.847656 -20.976562 9.796875 -20.9375 C 9.753906 -20.894531 9.710938 -20.84375 9.671875 -20.78125 C 9.628906 -20.726562 9.59375 -20.691406 9.5625 -20.671875 C 9.300781 -20.296875 9.082031 -19.953125 8.90625 -19.640625 C 8.507812 -18.910156 8.207031 -18.054688 8 -17.078125 C 7.820312 -16.148438 7.679688 -15.007812 7.578125 -13.65625 C 7.484375 -12.300781 7.367188 -11 7.234375 -9.75 C 7.109375 -8.5 6.898438 -7.363281 6.609375 -6.34375 C 5.960938 -4.101562 4.96875 -2.398438 3.625 -1.234375 C 2.894531 -0.585938 2.082031 -0.128906 1.1875 0.140625 C 0.570312 0.335938 0.03125 0.378906 -0.4375 0.265625 C -0.789062 0.179688 -0.832031 -0.0234375 -0.5625 -0.359375 C 0.632812 -1.828125 1.375 -3.488281 1.65625 -5.34375 C 1.695312 -5.75 1.742188 -6.1875 1.796875 -6.65625 C 1.859375 -7.132812 1.898438 -7.5625 1.921875 -7.9375 C 1.941406 -8.320312 1.972656 -8.769531 2.015625 -9.28125 C 2.066406 -9.800781 2.101562 -10.226562 2.125 -10.5625 C 2.1875 -11.363281 2.269531 -12.082031 2.375 -12.71875 C 2.476562 -13.363281 2.625 -14.078125 2.8125 -14.859375 C 3 -15.648438 3.21875 -16.351562 3.46875 -16.96875 C 3.726562 -17.59375 4.066406 -18.222656 4.484375 -18.859375 C 4.898438 -19.492188 5.390625 -20.039062 5.953125 -20.5 C 6.640625 -21.101562 7.378906 -21.523438 8.171875 -21.765625 Z M 8.171875 -21.765625 "/></g></g></g><g fill="#14213d" fill-opacity="1"><g transform="translate(234.681868, 198.083411)"><g><path d="M 13.921875 -12.46875 C 15.453125 -11.15625 16.640625 -9.816406 17.484375 -8.453125 C 18.328125 -7.097656 18.644531 -5.597656 18.4375 -3.953125 C 18.3125 -3.046875 18.015625 -2.226562 17.546875 -1.5 C 17.390625 -1.25 17.21875 -0.992188 17.03125 -0.734375 C 16.84375 -0.484375 16.59375 -0.238281 16.28125 0 C 15.96875 0.238281 15.703125 0.335938 15.484375 0.296875 C 15.304688 0.253906 15.175781 0.0820312 15.09375 -0.21875 C 15.019531 -0.519531 15 -0.8125 15.03125 -1.09375 C 15.070312 -1.382812 15.066406 -1.628906 15.015625 -1.828125 C 14.910156 -2.828125 14.632812 -3.710938 14.1875 -4.484375 C 13.59375 -5.503906 12.726562 -6.601562 11.59375 -7.78125 C 10.09375 -5.007812 8.429688 -2.9375 6.609375 -1.5625 C 5.660156 -0.851562 4.601562 -0.316406 3.4375 0.046875 C 2.269531 0.410156 1.222656 0.40625 0.296875 0.03125 C 0.078125 -0.0507812 -0.0507812 -0.15625 -0.09375 -0.28125 C -0.144531 -0.40625 -0.109375 -0.53125 0.015625 -0.65625 C 0.140625 -0.789062 0.269531 -0.914062 0.40625 -1.03125 C 0.550781 -1.144531 0.71875 -1.265625 0.90625 -1.390625 C 1.09375 -1.523438 1.210938 -1.613281 1.265625 -1.65625 C 1.992188 -2.28125 2.703125 -3.066406 3.390625 -4.015625 C 3.765625 -4.578125 4.164062 -5.195312 4.59375 -5.875 C 5.03125 -6.5625 5.390625 -7.148438 5.671875 -7.640625 C 5.960938 -8.128906 6.34375 -8.78125 6.8125 -9.59375 C 7.28125 -10.414062 7.632812 -11.03125 7.875 -11.4375 C 7.28125 -12.03125 6.78125 -12.601562 6.375 -13.15625 C 5.050781 -14.925781 4.421875 -16.578125 4.484375 -18.109375 C 4.523438 -19.109375 4.847656 -20.019531 5.453125 -20.84375 C 5.929688 -21.476562 6.328125 -21.863281 6.640625 -22 C 6.816406 -22.0625 6.984375 -22.046875 7.140625 -21.953125 C 7.296875 -21.867188 7.34375 -21.726562 7.28125 -21.53125 C 6.988281 -20.6875 6.898438 -19.910156 7.015625 -19.203125 C 7.140625 -18.492188 7.503906 -17.820312 8.109375 -17.1875 C 8.660156 -16.601562 9.390625 -15.957031 10.296875 -15.25 C 10.472656 -15.5 10.597656 -15.675781 10.671875 -15.78125 C 12.421875 -18.175781 14.234375 -19.875 16.109375 -20.875 C 17.148438 -21.425781 18.226562 -21.78125 19.34375 -21.9375 C 20.34375 -22.070312 21.019531 -22.070312 21.375 -21.9375 C 21.550781 -21.863281 21.65625 -21.738281 21.6875 -21.5625 C 21.71875 -21.382812 21.632812 -21.242188 21.4375 -21.140625 C 20.550781 -20.765625 19.726562 -20.273438 18.96875 -19.671875 C 18.21875 -19.078125 17.539062 -18.367188 16.9375 -17.546875 C 16.34375 -16.722656 15.832031 -15.957031 15.40625 -15.25 C 14.988281 -14.539062 14.523438 -13.664062 14.015625 -12.625 C 13.992188 -12.601562 13.960938 -12.550781 13.921875 -12.46875 Z M 13.921875 -12.46875 "/></g></g></g></svg>